# xmcd
#
# Track frame offsets:
#	150
#	18065
#	36945
#	57590
#	77760
#	98475
#	118515
#	136990
#	156097
#	174422
#
# Disc length: 2569 seconds
#
# Revision: 0
# Processed by: cddbd v1.5.2PL0 Copyright (c) Steve Scherf et al.
# Submitted via: EasyCDDAExtractor 12.0.1.1
#
DISCID=730a070a
DTITLE=Mayra Mayra - Que No Pare De Cantar
DYEAR=1997
DGENRE=Latin
TTITLE0=Sufre
TTITLE1=El Ladron
TTITLE2=La Trampa
TTITLE3=Llego El Viernes
TTITLE4=Entre Ella Y Yo
TTITLE5=Y Que Mas
TTITLE6=Piensa En Mi
TTITLE7=Que No Pare De Cantar
TTITLE8=Cara De Angel
TTITLE9=No Te Olvido
EXTD=
EXTT0=
EXTT1=
EXTT2=
EXTT3=
EXTT4=
EXTT5=
EXTT6=
EXTT7=
EXTT8=
EXTT9=
PLAYORDER=
